<?xml version="1.0" encoding="UTF-8"?>
<svg id="_管理画面" data-name="管理画面" xmlns="http://www.w3.org/2000/svg" viewBox="0 0 1600 400.28">
  <defs>
    <style>
      .cls-1 {
        fill: none;
        stroke: #bbb;
        stroke-linecap: round;
        stroke-miterlimit: 10;
        stroke-width: 12.12px;
      }

      .cls-2 {
        fill: #fff;
      }

      .cls-3 {
        fill: #bbb;
      }

      .cls-4 {
        opacity: .9;
      }

      .cls-5 {
        opacity: .88;
      }
    </style>
  </defs>
  <g class="cls-4">
    <path class="cls-3" d="M60.94,51.73l24.29,121.99,54.37-121.99h29.26l24.01,121.99,54.1-121.99h45.26l-85.01,184.09h-36.43l-24.56-111.78-52.16,111.78h-36.43L17.88,51.73h43.06Z"/>
    <path class="cls-3" d="M296.31,182c-.28,6.07,1.66,13.8,4.97,18.49,5.24,7.18,12.7,8.56,19.04,8.56,4.69,0,10.76-.28,15.73-3.59,3.59-2.48,6.9-7.18,8.56-11.04l40.02,3.31c-4.97,12.42-13.52,24.01-22.36,30.64-14.08,10.49-30.91,11.59-42.23,11.59-15.18,0-33.4-1.93-48.02-16.56-11.87-11.87-15.46-26.5-15.46-43.06,0-27.05,11.04-44.99,21.25-54.65,14.9-14.08,33.4-17.11,48.85-17.11,20.98,0,36.71,6.62,46.09,15.73,16.56,16.28,17.11,43.06,15.46,57.68h-91.91ZM350.13,157.71c-.55-5.8-3.59-12.42-8-16.01s-11.32-4.97-16.28-4.97c-9.66,0-15.46,4.14-18.77,7.45-3.04,3.31-5.8,8-6.9,13.52h49.96Z"/>
    <path class="cls-3" d="M459.42,126.52c1.93-2.48,7.18-8.56,15.18-12.7,7.73-3.86,15.73-5.24,24.01-5.24,14.9,0,27.05,3.86,37.26,13.25,14.63,13.52,17.66,31.46,17.66,44.99,0,22.63-7.18,42.5-20.15,55.75-13.25,13.52-28.15,17.39-45.54,17.39-7.73,0-17.39-1.1-25.94-5.8-8.28-4.69-13.52-11.59-14.9-13.52l-1.1,15.18h-39.74l25.12-201.2h39.74l-11.59,91.91ZM461.63,151.36c-5.8,5.8-10.21,14.63-10.21,25.39,0,11.87,4.97,18.49,8,21.25,4.69,4.42,12.14,7.73,20.15,7.73,7.45,0,16.56-3.04,22.63-9.11,6.62-6.35,10.49-16.84,10.49-25.67,0-8-3.04-15.46-8.56-20.7-4.14-4.14-10.49-7.45-19.6-7.45-11.04,0-18.49,4.14-22.91,8.56Z"/>
    <path class="cls-2" d="M702.63,73.83l-19.91,161.99h-46.45l19.91-161.99h-43.74l4.83-39.22h133.94l-4.83,39.22h-43.74Z"/>
    <path class="cls-3" d="M726.69,112.72h39.74l-3.59,18.22c3.86-7.73,9.66-12.97,15.46-16.28,7.73-4.14,16.28-4.97,20.7-4.97,6.62,0,12.14.83,16.28,1.93l-7.73,36.98c-3.86-1.93-9.66-4.14-17.39-4.14-9.94,0-16.56,3.86-20.42,7.45-6.9,6.62-10.21,18.22-11.87,31.46l-6.62,52.44h-39.74l15.18-123.1Z"/>
    <path class="cls-3" d="M912.84,112.72h39.74l-15.18,123.1h-39.74l3.04-14.08c-4.42,5.24-10.76,10.76-17.39,13.8-8.56,3.86-18.22,4.42-22.91,4.42-15.18,0-27.32-3.86-38.09-15.18-9.11-9.66-16.56-24.01-16.56-45.26,0-22.63,8-40.85,19.87-52.99,12.7-12.97,28.15-17.94,45.26-17.94,7.18,0,16.01.83,24.01,4.69,4.69,2.21,11.32,6.62,16.84,14.35l1.1-14.9ZM855.98,151.91c-5.52,5.52-9.38,14.35-9.38,24.56s4.14,16.84,8,20.98c5.8,6.07,12.97,8.28,20.98,8.28,11.32,0,18.49-4.42,22.63-8.28,7.18-6.9,10.49-17.39,10.49-26.5s-3.31-16.56-8.56-21.25c-3.59-3.31-9.94-6.9-20.7-6.9-9.94,0-17.39,3.04-23.46,9.11Z"/>
    <polygon class="cls-3" points="1027.1 112.72 1011.92 235.82 972.18 235.82 987.36 112.72 1027.1 112.72"/>
    <path class="cls-2" d="M1010.47,25.97c6.74,22.26,12.05,27.57,34.31,34.31-22.26,6.75-27.57,12.06-34.31,34.31-6.75-22.26-12.06-27.57-34.31-34.31,22.26-6.75,27.57-12.06,34.31-34.31Z"/>
    <path class="cls-3" d="M1100.79,112.72l-1.93,13.52c4.69-4.97,9.94-8.83,15.18-11.59,8.83-4.69,15.73-5.24,24.29-5.24,10.21,0,22.63,1.38,32.02,10.49,9.66,9.38,10.49,21.8,10.49,29.26,0,4.14-.28,10.21-1.93,23.46l-7.45,63.2h-39.74l6.62-53.27c1.66-12.7,1.66-17.94,1.66-19.87,0-4.69-.83-10.49-4.97-14.9-4.42-4.42-10.49-5.24-14.63-5.24-6.9,0-12.97,1.66-17.94,6.62-7.18,7.45-8.83,19.32-9.66,25.94l-7.18,60.72h-39.74l15.18-123.1h39.74Z"/>
    <path class="cls-2" d="M1259.76,112.72l-15.18,123.1h-39.74l15.18-123.1h39.74ZM1245.13,37.1c12.97,0,23.18,10.21,23.18,23.18s-10.21,23.18-23.18,23.18-23.18-10.21-23.18-23.18,10.21-23.18,23.18-23.18Z"/>
    <path class="cls-3" d="M1333.45,112.72l-1.93,13.52c4.69-4.97,9.94-8.83,15.18-11.59,8.83-4.69,15.73-5.24,24.29-5.24,10.21,0,22.63,1.38,32.02,10.49,9.66,9.38,10.49,21.8,10.49,29.26,0,4.14-.28,10.21-1.93,23.46l-7.45,63.2h-39.74l6.62-53.27c1.66-12.7,1.66-17.94,1.66-19.87,0-4.69-.83-10.49-4.97-14.9-4.42-4.42-10.49-5.24-14.63-5.24-6.9,0-12.97,1.66-17.94,6.62-7.18,7.45-8.83,19.32-9.66,25.94l-7.18,60.72h-39.74l15.18-123.1h39.74Z"/>
    <path class="cls-3" d="M1542.38,113.72h39.74l-15.46,123.65c-1.93,14.35-5.52,31.74-18.49,44.71-16.28,16.28-39.47,17.94-53.82,17.94-16.56,0-34.22-2.76-47.75-15.46-8.56-8.28-15.18-20.42-17.11-33.67h42.5c1.1,4.42,3.86,9.11,7.45,12.14,4.42,3.59,10.76,4.97,17.39,4.97,12.14,0,18.77-5.52,21.8-9.11,4.97-5.8,7.45-15.46,8.28-22.91l1.66-13.25c-11.04,15.73-26.77,17.39-37.81,17.39-12.42,0-25.39-1.38-38.09-14.63-8.56-8.83-16.56-22.91-16.56-44.71s7.45-40.3,20.15-53.27c11.87-12.14,26.22-17.94,44.16-17.94,8.56,0,25.94,1.1,40.57,19.04l1.38-14.9ZM1486.07,152.09c-5.52,5.52-9.11,15.73-9.11,24.84,0,7.73,2.76,16.28,8.28,21.53,4.97,4.69,12.97,7.45,19.87,7.45,7.45,0,16.28-2.48,21.8-8,6.07-5.8,10.21-17.11,10.21-26.22,0-7.73-3.31-15.73-8-20.15-3.86-3.86-10.21-7.45-21.25-7.45s-17.94,4.14-21.8,8Z"/>
    <line class="cls-1" x1="46.67" y1="257.25" x2="1456.07" y2="257.25"/>
  </g>
  <g class="cls-5">
    <path class="cls-2" d="M411.84,303.23c.7.8,1.1,1.2,1.1,1.8,0,.4-.1.9-.5,1.7-4.7,10.2-10,19.3-15.8,27.2,3.2,2.7,6.4,5.6,9.5,8.8v1.1l-9.7,10.8-.9.1c-2.9-3.2-5.8-6.1-8.8-9-9.1,9.3-20,17-33.7,23.9-.9.5-1.5.7-1.9.7-.7,0-1.3-.3-2.3-1l-11.7-8c16.1-6.9,28.9-15.5,38.5-25.2-3.4-2.6-7.1-5.2-11.2-7.7v-1l8.5-9.3,1.1-.1c3.7,2.2,7.3,4.4,10.7,6.7,3.5-4.9,6.6-10.3,8.9-15.7l-19.4.1c-6.5,9-13.4,16.7-20.4,23.1-1.9,1.4-2.4,1.3-4.2.1l-10.9-7c13.3-10.3,25.3-24.8,32.4-41l1-.3,13.6,4.9.2,1.1c-1.1,2.2-2.3,4.3-3.5,6.4l13.7-.2,8.2-.6,7.5,7.6Z"/>
    <path class="cls-2" d="M460.73,324.54c-7.6,5.4-15.5,10.5-24.3,15.6-2,1.1-2.5,1.1-4.3-.4l-10.7-9.3c23.5-11.4,42.1-23.8,60.3-45.1h1.2l12.5,8.7.1,1.2c-6.4,6.6-12.6,12.3-18.5,17.3v23.1l.5,31.4h-17.3l.5-31.1v-11.4Z"/>
    <path class="cls-2" d="M528.73,318.34c9.8-4.6,21.6-10.8,32.1-18.4h.9l9.8,11.8-.1,1c-12.6,8.2-27.2,15-42.8,20.8v6.8c0,2.8.1,4.3.9,5.3,1.2,1.4,3.3,1.7,7.5,1.7,11.3,0,20.6-.7,34.2-2.2l.8.5.6,14.6-.6.7c-10.6.9-25.3,1.7-34.3,1.7-9.7,0-17.4-.9-21.7-6.3-2.8-3.4-3-8.3-3-15.1l.3-46.3.7-.7h14.1l.7.7-.1,23.4ZM586.74,295.43c0,5.5-4.6,10.1-10.1,10.1s-10.2-4.6-10.2-10.1,4.6-10.2,10.2-10.2,10.1,4.6,10.1,10.2ZM572.04,295.43c0,2.5,2.1,4.5,4.6,4.5s4.5-2,4.5-4.5-2-4.6-4.5-4.6-4.6,2-4.6,4.6Z"/>
    <path class="cls-2" d="M592.73,306.33l9.7-10.9,1-.2c6,3,14,8.3,20.3,13.8v1l-10.4,12.1-.9.1c-6-5.8-12.7-10.7-19.6-15l-.1-.9ZM670.24,314.64c.3.8.4,1.4.4,1.9,0,.7-.3,1.1-1,1.8-17.8,19.6-39.5,34.2-65.9,46.2l-1-.2-9-13.5.2-1c24.8-9.5,50.4-27.1,70.8-50.9l5.5,15.7Z"/>
    <path class="cls-2" d="M713.94,310.94c-6.1,8-12.6,14.8-19.9,20.7-1.1.8-1.7,1.2-2.4,1.2-.4,0-.9-.2-1.6-.6l-11.9-7.2c15.7-11.9,25.8-24.3,33.1-40.3l.9-.3,14.3,5.3.2,1c-1.3,2.5-2.6,4.8-4.1,7.2l12.8-.2,7.6-.6,8.7,8.1c.9.8,1.4,1.4,1.4,2.1,0,.5-.2,1.1-.6,2-12.6,27.1-28.8,45.6-57.2,58.6-1.3.5-2,.8-2.6.8-.5,0-1-.2-1.7-.8l-12.4-9.6c22.3-7.3,43.3-23.2,54.5-47.5l-19.1.1ZM742.34,289.33l5.2-3.7,1-.1c3.7,3.1,7.2,6.6,10.2,10.6l-.1,1-5.5,3.9h-1c-3.1-4.1-5.9-7.4-9.9-10.8l.1-.9ZM751.74,283.03l5.1-3.7,1-.1c3.7,3.1,6.9,6.3,9.9,10.3l-.1,1-5.2,3.8h-1c-3.1-4.1-5.8-7-9.8-10.4l.1-.9Z"/>
    <path class="cls-2" d="M799.64,329.64l.5,38.2h-17.4l.5-38.4v-43.1l.8-.7h14.8l.8.8v33.4l8.6-9.6,1-.1c8.3,4.6,14.5,8.5,22.5,15.3l-.1,1-9.7,12.1-1,.1c-6.7-6.1-13.3-11.2-21.3-15.7v6.7Z"/>
    <path class="cls-2" d="M863.14,343.54c15.3-5.7,34.1-18.6,49.5-39.6l6.6,14c.4.7.6,1.2.6,1.7,0,.6-.2,1.1-.8,1.9-14.7,18.3-34,31.7-60.6,42-1,.4-1.6.5-2.1.5-.6,0-1-.3-1.7-.9l-7.9-7.1.5-9.5v-51.8l.8-.7h14.3l.8.8v48.7Z"/>
    <path class="cls-2" d="M988.64,335.34h-44.7l-14.9.3-.7-.8v-14.3l.9-.6,14.3.3h44.6l15.4-.3.8.7v14.2l-.7.8-15-.3Z"/>
    <path class="cls-2" d="M1081.04,354.34h-50.6l-14.9.3-.7-.8v-14.1l.9-.6,14.3.3h50.5l15.4-.3.8.7v14l-.7.8-15-.3ZM1071.84,315.64h-30.9l-14.4.3-.7-.8v-14l.9-.6,14.2.3h30.5l13.4-.3.8.7v13.9l-.7.8-13.1-.3Z"/>
    <path class="cls-2" d="M1106.24,306.33l9.7-10.9,1-.2c6,3,14,8.3,20.3,13.8v1l-10.4,12.1-.9.1c-6-5.8-12.7-10.7-19.6-15l-.1-.9ZM1183.74,314.64c.3.8.4,1.4.4,1.9,0,.7-.3,1.1-1,1.8-17.8,19.6-39.5,34.2-65.9,46.2l-1-.2-9-13.5.2-1c24.8-9.5,50.4-27.1,70.8-50.9l5.5,15.7Z"/>
    <path class="cls-2" d="M1227.44,310.94c-6.1,8-12.6,14.8-19.9,20.7-1.1.8-1.7,1.2-2.4,1.2-.4,0-.9-.2-1.6-.6l-11.9-7.2c15.7-11.9,25.8-24.3,33.1-40.3l.9-.3,14.3,5.3.2,1c-1.3,2.5-2.6,4.8-4.1,7.2l12.8-.2,7.6-.6,8.7,8.1c.9.8,1.4,1.4,1.4,2.1,0,.5-.2,1.1-.6,2-12.6,27.1-28.8,45.6-57.2,58.6-1.3.5-2,.8-2.6.8-.5,0-1-.2-1.7-.8l-12.4-9.6c22.3-7.3,43.3-23.2,54.5-47.5l-19.1.1ZM1255.84,289.33l5.2-3.7,1-.1c3.7,3.1,7.2,6.6,10.2,10.6l-.1,1-5.5,3.9h-1c-3.1-4.1-5.9-7.4-9.9-10.8l.1-.9ZM1265.24,283.03l5.1-3.7,1-.1c3.7,3.1,6.9,6.3,9.9,10.3l-.1,1-5.2,3.8h-1c-3.1-4.1-5.8-7-9.8-10.4l.1-.9Z"/>
  </g>
</svg>