<?xml version="1.0" encoding="UTF-8"?>
<svg id="_レイヤー_1" data-name="レイヤー 1" xmlns="http://www.w3.org/2000/svg" xmlns:xlink="http://www.w3.org/1999/xlink" viewBox="0 0 420 420">
  <defs>
    <style>
      .cls-1, .cls-2, .cls-3 {
        fill: #fff;
      }

      .cls-1, .cls-3 {
        opacity: .92;
      }

      .cls-4 {
        fill: url(#_名称未設定グラデーション_33);
        stroke-linecap: round;
        stroke-width: 7.86px;
      }

      .cls-4, .cls-5 {
        stroke: #fff;
        stroke-miterlimit: 10;
      }

      .cls-3 {
        font-family: HelveticaNeue-BoldItalic, 'Helvetica Neue';
        font-size: 50.68px;
        font-style: italic;
        font-weight: 700;
      }

      .cls-5 {
        fill: url(#_名称未設定グラデーション_38);
        stroke-width: .49px;
      }
    </style>
    <linearGradient id="_名称未設定グラデーション_38" data-name="名称未設定グラデーション 38" x1="208.93" y1="197.33" x2="208.93" y2="79.16" gradientUnits="userSpaceOnUse">
      <stop offset="0" stop-color="#fff" stop-opacity=".8"/>
      <stop offset="1" stop-color="#fff"/>
    </linearGradient>
    <linearGradient id="_名称未設定グラデーション_33" data-name="名称未設定グラデーション 33" x1="203.48" y1="215.49" x2="203.48" y2="215.49" gradientUnits="userSpaceOnUse">
      <stop offset="0" stop-color="#fff"/>
      <stop offset="1" stop-color="#fff"/>
    </linearGradient>
  </defs>
  <polygon class="cls-5" points="236.53 79.16 236.53 79.16 235.17 79.16 201.47 155.16 186.51 79.16 168.28 79.16 134.41 155.16 119.27 79.16 92.45 79.16 117.21 193.85 139.91 193.85 172.41 124.21 187.71 193.85 210.41 193.85 252.74 102.19 262.35 102.19 249.14 197.33 279.96 197.33 293.17 102.19 322.2 102.19 325.4 79.16 236.53 79.16"/>
  <line class="cls-4" x1="93.88" y1="215.49" x2="313.09" y2="215.49"/>
  <path class="cls-2" d="M244.08,224.58c1.48,4.87,2.64,6.04,7.51,7.51-4.87,1.48-6.04,2.64-7.51,7.51-1.48-4.87-2.64-6.04-7.51-7.51,4.87-1.48,6.04-2.64,7.51-7.51Z"/>
  <path class="cls-1" d="M87.22,230.67l4.03,20.27,9.03-20.27h4.86l3.99,20.27,8.99-20.27h7.52l-14.12,30.58h-6.05l-4.08-18.57-8.67,18.57h-6.05l-6.6-30.58h7.15Z"/>
  <path class="cls-1" d="M126.32,252.31c-.05,1.01.28,2.29.83,3.07.87,1.19,2.11,1.42,3.16,1.42.78,0,1.79-.05,2.61-.6.6-.41,1.15-1.19,1.42-1.83l6.65.55c-.83,2.06-2.25,3.99-3.71,5.09-2.34,1.74-5.14,1.93-7.02,1.93-2.52,0-5.55-.32-7.98-2.75-1.97-1.97-2.57-4.4-2.57-7.15,0-4.49,1.83-7.47,3.53-9.08,2.48-2.34,5.55-2.84,8.12-2.84,3.48,0,6.1,1.1,7.66,2.61,2.75,2.71,2.84,7.15,2.57,9.58h-15.27ZM135.26,248.27c-.09-.96-.6-2.06-1.33-2.66s-1.88-.83-2.71-.83c-1.6,0-2.57.69-3.12,1.24-.5.55-.96,1.33-1.15,2.25h8.3Z"/>
  <path class="cls-1" d="M153.42,243.09c.32-.41,1.19-1.42,2.52-2.11,1.28-.64,2.61-.87,3.99-.87,2.48,0,4.49.64,6.19,2.2,2.43,2.25,2.93,5.23,2.93,7.47,0,3.76-1.19,7.06-3.35,9.26-2.2,2.25-4.68,2.89-7.57,2.89-1.28,0-2.89-.18-4.31-.96-1.38-.78-2.25-1.93-2.48-2.25l-.18,2.52h-6.6l4.17-33.43h6.6l-1.93,15.27ZM153.79,247.22c-.96.96-1.7,2.43-1.7,4.22,0,1.97.83,3.07,1.33,3.53.78.73,2.02,1.28,3.35,1.28,1.24,0,2.75-.5,3.76-1.51,1.1-1.05,1.74-2.8,1.74-4.26,0-1.33-.5-2.57-1.42-3.44-.69-.69-1.74-1.24-3.26-1.24-1.83,0-3.07.69-3.81,1.42Z"/>
  <path class="cls-1" d="M193.82,234.34l-3.31,26.91h-7.72l3.31-26.91h-7.27l.8-6.51h22.25l-.8,6.51h-7.27Z"/>
  <path class="cls-1" d="M197.82,240.8h6.6l-.6,3.03c.64-1.28,1.6-2.16,2.57-2.71,1.28-.69,2.71-.83,3.44-.83,1.1,0,2.02.14,2.71.32l-1.28,6.14c-.64-.32-1.6-.69-2.89-.69-1.65,0-2.75.64-3.39,1.24-1.15,1.1-1.7,3.03-1.97,5.23l-1.1,8.71h-6.6l2.52-20.45Z"/>
  <path class="cls-1" d="M228.75,240.8h6.6l-2.52,20.45h-6.6l.5-2.34c-.73.87-1.79,1.79-2.89,2.29-1.42.64-3.03.73-3.81.73-2.52,0-4.54-.64-6.33-2.52-1.51-1.6-2.75-3.99-2.75-7.52,0-3.76,1.33-6.79,3.3-8.8,2.11-2.16,4.68-2.98,7.52-2.98,1.19,0,2.66.14,3.99.78.78.37,1.88,1.1,2.8,2.38l.18-2.48ZM219.3,247.31c-.92.92-1.56,2.38-1.56,4.08s.69,2.8,1.33,3.48c.96,1.01,2.15,1.38,3.48,1.38,1.88,0,3.07-.73,3.76-1.38,1.19-1.15,1.74-2.89,1.74-4.4s-.55-2.75-1.42-3.53c-.6-.55-1.65-1.15-3.44-1.15-1.65,0-2.89.5-3.9,1.51Z"/>
  <polygon class="cls-1" points="247.73 240.8 245.21 261.25 238.6 261.25 241.13 240.8 247.73 240.8"/>
  <path class="cls-1" d="M259.97,240.8l-.32,2.25c.78-.83,1.65-1.47,2.52-1.93,1.47-.78,2.61-.87,4.03-.87,1.7,0,3.76.23,5.32,1.74,1.6,1.56,1.74,3.62,1.74,4.86,0,.69-.05,1.7-.32,3.9l-1.24,10.5h-6.6l1.1-8.85c.28-2.11.28-2.98.28-3.3,0-.78-.14-1.74-.83-2.48-.73-.73-1.74-.87-2.43-.87-1.15,0-2.16.28-2.98,1.1-1.19,1.24-1.47,3.21-1.6,4.31l-1.19,10.09h-6.6l2.52-20.45h6.6Z"/>
  <path class="cls-1" d="M286.38,240.8l-2.52,20.45h-6.6l2.52-20.45h6.6ZM283.95,228.24c2.15,0,3.85,1.7,3.85,3.85s-1.7,3.85-3.85,3.85-3.85-1.7-3.85-3.85,1.7-3.85,3.85-3.85Z"/>
  <path class="cls-1" d="M298.62,240.8l-.32,2.25c.78-.83,1.65-1.47,2.52-1.93,1.47-.78,2.61-.87,4.03-.87,1.7,0,3.76.23,5.32,1.74,1.6,1.56,1.74,3.62,1.74,4.86,0,.69-.05,1.7-.32,3.9l-1.24,10.5h-6.6l1.1-8.85c.28-2.11.28-2.98.28-3.3,0-.78-.14-1.74-.83-2.48-.73-.73-1.74-.87-2.43-.87-1.15,0-2.16.28-2.98,1.1-1.19,1.24-1.47,3.21-1.6,4.31l-1.19,10.09h-6.6l2.52-20.45h6.6Z"/>
  <path class="cls-1" d="M333.33,240.97h6.6l-2.57,20.54c-.32,2.38-.92,5.27-3.07,7.43-2.71,2.71-6.56,2.98-8.94,2.98-2.75,0-5.69-.46-7.93-2.57-1.42-1.38-2.52-3.39-2.84-5.59h7.06c.18.73.64,1.51,1.24,2.02.73.6,1.79.83,2.89.83,2.02,0,3.12-.92,3.62-1.51.83-.96,1.24-2.57,1.38-3.81l.28-2.2c-1.83,2.61-4.45,2.89-6.28,2.89-2.06,0-4.22-.23-6.33-2.43-1.42-1.47-2.75-3.81-2.75-7.43s1.24-6.69,3.35-8.85c1.97-2.02,4.36-2.98,7.34-2.98,1.42,0,4.31.18,6.74,3.16l.23-2.48ZM323.98,247.34c-.92.92-1.51,2.61-1.51,4.13,0,1.28.46,2.71,1.38,3.58.83.78,2.15,1.24,3.3,1.24,1.24,0,2.71-.41,3.62-1.33,1.01-.96,1.7-2.84,1.7-4.36,0-1.28-.55-2.61-1.33-3.35-.64-.64-1.7-1.24-3.53-1.24s-2.98.69-3.62,1.33Z"/>
  <text class="cls-3" transform="translate(124.8 316.71)"><tspan x="0" y="0">Typing</tspan></text>
</svg>