<?xml version="1.0" encoding="UTF-8"?>
<svg id="_レイヤー_1" data-name="レイヤー 1" xmlns="http://www.w3.org/2000/svg" viewBox="0 0 1600 329.56">
  <defs>
    <style>
      .cls-1 {
        stroke: #fff;
        stroke-linecap: round;
        stroke-miterlimit: 10;
        stroke-width: 12.12px;
      }

      .cls-1, .cls-2 {
        fill: #fff;
      }
    </style>
  </defs>
  <path class="cls-2" d="M51.4,51.73l24.29,121.99,54.37-121.99h29.26l24.01,121.99,54.1-121.99h45.26l-85.01,184.09h-36.43l-24.56-111.78-52.16,111.78h-36.43L8.34,51.73h43.06Z"/>
  <path class="cls-2" d="M286.78,182c-.28,6.07,1.66,13.8,4.97,18.49,5.24,7.18,12.7,8.56,19.04,8.56,4.69,0,10.76-.28,15.73-3.59,3.59-2.48,6.9-7.18,8.56-11.04l40.02,3.31c-4.97,12.42-13.52,24.01-22.36,30.64-14.08,10.49-30.91,11.59-42.23,11.59-15.18,0-33.4-1.93-48.02-16.56-11.87-11.87-15.46-26.5-15.46-43.06,0-27.05,11.04-44.99,21.25-54.65,14.9-14.08,33.4-17.11,48.85-17.11,20.98,0,36.71,6.62,46.09,15.73,16.56,16.28,17.11,43.06,15.46,57.68h-91.91ZM340.6,157.71c-.55-5.8-3.59-12.42-8-16.01s-11.32-4.97-16.28-4.97c-9.66,0-15.46,4.14-18.77,7.45-3.04,3.31-5.8,8-6.9,13.52h49.96Z"/>
  <path class="cls-2" d="M449.89,126.52c1.93-2.48,7.18-8.56,15.18-12.7,7.73-3.86,15.73-5.24,24.01-5.24,14.9,0,27.05,3.86,37.26,13.25,14.63,13.52,17.66,31.46,17.66,44.99,0,22.63-7.18,42.5-20.15,55.75-13.25,13.52-28.15,17.39-45.54,17.39-7.73,0-17.39-1.1-25.94-5.8-8.28-4.69-13.52-11.59-14.9-13.52l-1.1,15.18h-39.74l25.12-201.2h39.74l-11.59,91.91ZM452.1,151.36c-5.8,5.8-10.21,14.63-10.21,25.39,0,11.87,4.97,18.49,8,21.25,4.69,4.42,12.14,7.73,20.15,7.73,7.45,0,16.56-3.04,22.63-9.11,6.62-6.35,10.49-16.84,10.49-25.67,0-8-3.04-15.46-8.56-20.7-4.14-4.14-10.49-7.45-19.6-7.45-11.04,0-18.49,4.14-22.91,8.56Z"/>
  <path class="cls-2" d="M693.1,73.83l-19.91,161.99h-46.45l19.91-161.99h-43.74l4.83-39.22h133.94l-4.83,39.22h-43.74Z"/>
  <path class="cls-2" d="M717.15,112.72h39.74l-3.59,18.22c3.86-7.73,9.66-12.97,15.46-16.28,7.73-4.14,16.28-4.97,20.7-4.97,6.62,0,12.14.83,16.28,1.93l-7.73,36.98c-3.86-1.93-9.66-4.14-17.39-4.14-9.94,0-16.56,3.86-20.42,7.45-6.9,6.62-10.21,18.22-11.87,31.46l-6.62,52.44h-39.74l15.18-123.1Z"/>
  <path class="cls-2" d="M903.3,112.72h39.74l-15.18,123.1h-39.74l3.04-14.08c-4.42,5.24-10.76,10.76-17.39,13.8-8.56,3.86-18.22,4.42-22.91,4.42-15.18,0-27.32-3.86-38.09-15.18-9.11-9.66-16.56-24.01-16.56-45.26,0-22.63,8-40.85,19.87-52.99,12.7-12.97,28.15-17.94,45.26-17.94,7.18,0,16.01.83,24.01,4.69,4.69,2.21,11.32,6.62,16.84,14.35l1.1-14.9ZM846.45,151.91c-5.52,5.52-9.38,14.35-9.38,24.56s4.14,16.84,8,20.98c5.8,6.07,12.97,8.28,20.98,8.28,11.32,0,18.49-4.42,22.63-8.28,7.18-6.9,10.49-17.39,10.49-26.5s-3.31-16.56-8.56-21.25c-3.59-3.31-9.94-6.9-20.7-6.9-9.94,0-17.39,3.04-23.46,9.11Z"/>
  <polygon class="cls-2" points="1017.57 112.72 1002.39 235.82 962.64 235.82 977.82 112.72 1017.57 112.72"/>
  <path class="cls-2" d="M1000.94,25.97c6.74,22.26,12.05,27.57,34.31,34.31-22.26,6.75-27.57,12.06-34.31,34.31-6.75-22.26-12.06-27.57-34.31-34.31,22.26-6.75,27.57-12.06,34.31-34.31Z"/>
  <path class="cls-2" d="M1091.25,112.72l-1.93,13.52c4.69-4.97,9.94-8.83,15.18-11.59,8.83-4.69,15.73-5.24,24.29-5.24,10.21,0,22.63,1.38,32.02,10.49,9.66,9.38,10.49,21.8,10.49,29.26,0,4.14-.28,10.21-1.93,23.46l-7.45,63.2h-39.74l6.62-53.27c1.66-12.7,1.66-17.94,1.66-19.87,0-4.69-.83-10.49-4.97-14.9-4.42-4.42-10.49-5.24-14.63-5.24-6.9,0-12.97,1.66-17.94,6.62-7.18,7.45-8.83,19.32-9.66,25.94l-7.18,60.72h-39.74l15.18-123.1h39.74Z"/>
  <path class="cls-2" d="M1250.23,112.72l-15.18,123.1h-39.74l15.18-123.1h39.74ZM1235.6,37.1c12.97,0,23.18,10.21,23.18,23.18s-10.21,23.18-23.18,23.18-23.18-10.21-23.18-23.18,10.21-23.18,23.18-23.18Z"/>
  <path class="cls-2" d="M1323.91,112.72l-1.93,13.52c4.69-4.97,9.94-8.83,15.18-11.59,8.83-4.69,15.73-5.24,24.29-5.24,10.21,0,22.63,1.38,32.02,10.49,9.66,9.38,10.49,21.8,10.49,29.26,0,4.14-.28,10.21-1.93,23.46l-7.45,63.2h-39.74l6.62-53.27c1.66-12.7,1.66-17.94,1.66-19.87,0-4.69-.83-10.49-4.97-14.9-4.42-4.42-10.49-5.24-14.63-5.24-6.9,0-12.97,1.66-17.94,6.62-7.18,7.45-8.83,19.32-9.66,25.94l-7.18,60.72h-39.74l15.18-123.1h39.74Z"/>
  <path class="cls-2" d="M1532.84,113.72h39.74l-15.46,123.65c-1.93,14.35-5.52,31.74-18.49,44.71-16.28,16.28-39.47,17.94-53.82,17.94-16.56,0-34.22-2.76-47.75-15.46-8.56-8.28-15.18-20.42-17.11-33.67h42.5c1.1,4.42,3.86,9.11,7.45,12.14,4.42,3.59,10.76,4.97,17.39,4.97,12.14,0,18.77-5.52,21.8-9.11,4.97-5.8,7.45-15.46,8.28-22.91l1.66-13.25c-11.04,15.73-26.77,17.39-37.81,17.39-12.42,0-25.39-1.38-38.09-14.63-8.56-8.83-16.56-22.91-16.56-44.71s7.45-40.3,20.15-53.27c11.87-12.14,26.22-17.94,44.16-17.94,8.56,0,25.94,1.1,40.57,19.04l1.38-14.9ZM1476.54,152.09c-5.52,5.52-9.11,15.73-9.11,24.84,0,7.73,2.76,16.28,8.28,21.53,4.97,4.69,12.97,7.45,19.87,7.45,7.45,0,16.28-2.48,21.8-8,6.07-5.8,10.21-17.11,10.21-26.22,0-7.73-3.31-15.73-8-20.15-3.86-3.86-10.21-7.45-21.25-7.45s-17.94,4.14-21.8,8Z"/>
  <line class="cls-1" x1="37.14" y1="257.25" x2="1446.53" y2="257.25"/>
</svg>